<svg version="1.0" xmlns="http://www.w3.org/2000/svg" width="773.333" height="773.333" viewBox="0 0 580 580"><path d="M189 94.5V189H94.5C.7 189 0 189 0 191s.7 2 94.5 2H189v190H94.5C.7 383 0 383 0 385s.7 2 94.5 2H189v96.5c0 95.8 0 96.5 2 96.5s2-.7 2-96.5V387h190v96.5c0 95.8 0 96.5 2 96.5s2-.7 2-96.5V387h96.5c95.8 0 96.5 0 96.5-2s-.7-2-96.5-2H387V193h96.5c95.8 0 96.5 0 96.5-2s-.7-2-96.5-2H387V94.5C387 .7 387 0 385 0s-2 .7-2 94.5V189H193V94.5C193 .7 193 0 191 0s-2 .7-2 94.5zM383 288v95H193V193h190v95z"/><path d="M222.4 219.9c-6.3 3.9-6 12.2.6 15.6 7.9 4.1 16.8-3.3 13.5-11-1.6-3.9-3.6-5.5-7.7-6.1-2.2-.3-4.3.1-6.4 1.5zm10.7 2c1.7 1.3 2.3 2.9 2.3 5.6 0 4.8-3.1 7.5-8.5 7.5-3.4 0-4.2-.5-5.9-3.3-1.1-1.7-2-3.7-2-4.2 0-.6.9-2.5 2-4.3 1.7-2.7 2.5-3.2 5.9-3.2 2.3 0 4.8.8 6.2 1.9zM281.9 220.8c-2.5 2.2-3.1 3.6-3.1 6.7s.6 4.5 3.1 6.7c1.9 1.7 4.3 2.8 6.1 2.8 1.8 0 4.2-1.1 6.1-2.8 2.5-2.2 3.1-3.6 3.1-6.7s-.6-4.5-3.1-6.7c-1.9-1.7-4.3-2.8-6.1-2.8-1.8 0-4.2 1.1-6.1 2.8zm12 1.8c1.2 1.5 2.1 3.7 2.1 4.9 0 1.2-.9 3.4-2.1 4.9-1.6 2-2.9 2.6-5.9 2.6-3 0-4.3-.6-5.9-2.6-1.2-1.5-2.1-3.7-2.1-4.9 0-1.2.9-3.4 2.1-4.9 1.6-2 2.9-2.6 5.9-2.6 3 0 4.3.6 5.9 2.6zM340.2 220.2c-.9.9-.5 1.9 1.8 4.3l3 3.1-3 2.9c-2.3 2.2-2.7 3.2-1.9 4.2 1.6 1.9 3 1.6 5.9-1.2l2.6-2.5 2.4 2.5c2.6 2.8 4 3.1 5.8 1.3.9-.9.5-1.9-1.8-4.3l-3-3.1 3-2.9c2.3-2.2 2.7-3.2 1.9-4.2-1.7-1.9-3.3-1.6-5.9 1.2l-2.4 2.5-2.6-2.5c-2.9-2.8-4-3.1-5.8-1.3z"/><path d="M246.5 237.8c-3.7 2.3-9.1 8.3-10 11.2-1.4 4.3.9 7.5 15.5 22.7 8.3 8.5 15 15.8 15 16.3s-6.5 7.6-14.3 15.7c-7.9 8.1-14.9 15.8-15.5 17-2.5 4.5-1.5 7.3 4.6 13.5 9.5 9.4 11.7 8.6 32-11.8 7.3-7.4 13.7-13.4 14.2-13.4s7.2 6.2 14.8 13.9c15.1 15.1 18.6 17.6 23.4 16.5 4-.8 12.4-9.2 13.2-13.2 1.1-4.8-1.4-8.3-16.5-23.4-7.7-7.6-13.9-14.3-13.9-14.8s6-6.9 13.4-14.2c20.4-20.3 21.2-22.5 11.8-32-6.2-6.1-9-7.1-13.5-4.6-1.2.6-8.9 7.6-17 15.5-8.1 7.8-15.2 14.3-15.7 14.3s-7.6-6.5-15.7-14.3c-18.5-18-19.6-18.6-25.8-14.9z"/><path d="M223.3 279.5c-3.7 1.6-5.3 4.2-5.3 8.5 0 4.5 1.6 7 5.7 8.6 6.6 2.8 13.3-1.4 13.3-8.4 0-4.6-1.6-7.1-5.5-8.8-4.1-1.7-4.2-1.7-8.2.1zm8.8 1.8c4.4 3.4 4.7 8.9.7 12.7-4.1 3.8-10.6 2.3-12.8-3-1.4-3.4 0-8.3 2.9-10 2.3-1.3 7.3-1.2 9.2.3zM340.1 280.4c-.9 1.1-.6 2.1 1.5 4.5l2.6 3.1-2.6 3.1c-2.1 2.4-2.4 3.4-1.5 4.5 1.6 2 2.9 1.7 5.9-1.1l2.6-2.5 2.4 2.5c2.7 2.8 4.2 3.1 5.9 1.1.9-1.1.6-2.1-1.5-4.5l-2.6-3.1 2.6-3.1c2.1-2.4 2.4-3.4 1.5-4.5-1.7-2-3.2-1.7-5.9 1.1l-2.4 2.5-2.6-2.5c-3-2.8-4.3-3.1-5.9-1.1zM219.2 341.2c-.9.9-.5 1.9 1.8 4.3l3 3.1-3 2.9c-2.3 2.2-2.7 3.2-1.9 4.2 1.6 1.9 3 1.6 5.9-1.2l2.6-2.5 2.4 2.5c2.6 2.8 4 3.1 5.8 1.3.9-.9.5-1.9-1.8-4.3l-3-3.1 3-2.9c2.3-2.2 2.7-3.2 1.9-4.2-1.7-1.9-3.3-1.6-5.9 1.2l-2.4 2.5-2.6-2.5c-2.9-2.8-4-3.1-5.8-1.3zM279.6 341.5c-.3.8.5 2.7 1.8 4.2l2.4 2.8-2.4 2.8c-4.1 4.8-.4 7.9 4.3 3.5l2.3-2.1 2.3 2.1c4.7 4.4 8.4 1.3 4.3-3.5l-2.4-2.8 2.4-2.8c4.1-4.8.4-7.9-4.3-3.5l-2.3 2.1-2.3-2.1c-2.7-2.5-5.2-2.8-6.1-.7zM416.4 26.2c-6.2 3-6.1 13.8.3 16.7 3.2 1.5 8.4 1.3 10.5-.3 1-.7 2.4-2.8 3.2-4.7 1.2-3 1.2-3.9 0-6.8-.8-1.9-2.2-4-3.2-4.7-2-1.6-7.8-1.7-10.8-.2zm11.1 2.8c2.6 2.7 2.5 8.4-.3 11.2-6.7 6.7-18-2.3-12.6-10 3.1-4.5 8.9-5 12.9-1.2zM537.3 27.6c-.3.9.5 2.6 2.1 4.3l2.6 2.7-2.5 2.4c-2.9 2.7-3.2 4.8-.9 5.7.9.3 2.6-.5 4.3-2.1l2.7-2.6 2.4 2.5c2.7 2.9 4.8 3.2 5.7.9.3-.9-.5-2.6-2.1-4.3l-2.6-2.7 2.5-2.4c2.9-2.7 3.2-4.8.9-5.7-.9-.3-2.6.5-4.3 2.1l-2.7 2.6-2.4-2.5c-2.7-2.9-4.8-3.2-5.7-.9zM443.5 42.1c-3.6 2.1-9.7 8.3-11 11.4-.9 2-1 3.7-.3 5.5.5 1.4 8 9.6 16.6 18.2L464.5 93l-15.7 15.7c-8.6 8.7-16.1 16.9-16.6 18.3-1.3 3.4.1 6.6 4.6 11.3 4.8 5 8.6 7 12.1 6.2 1.7-.4 8.4-6.3 18.6-16.5l16-16 16.1 16.1c14.2 14.2 16.5 16.1 20 16.6 3.5.4 4.4.1 8.8-3.8 2.7-2.4 5.5-5.8 6.3-7.6 2.3-5.6-.1-9.1-17-25.5L502.5 93l14.1-13.7c7.7-7.6 15.3-15.5 16.9-17.6 2.6-3.5 2.7-4 1.6-7.7-.7-2.5-2.9-5.4-6.3-8.5-4.8-4.3-5.6-4.7-9.2-4.2-3.5.5-5.7 2.4-20 16.6L483.5 74l-16-16c-16.5-16.5-19.5-18.5-24-15.9zM48.8 48.8c-5 5.1-5.8 6.4-5.8 9.7 0 3.5 1 4.8 15.9 19.9l16 16.1-16 16.1C44 125.7 43 127 43 130.5c0 3.3.8 4.6 5.8 9.7 5.1 5 6.4 5.8 9.7 5.8 3.5 0 4.8-1 19.9-15.9l16.1-16 16.1 16C125.7 145 127 146 130.5 146c3.3 0 4.6-.8 9.7-5.8 5-5.1 5.8-6.4 5.8-9.7 0-3.5-1-4.8-15.9-19.9l-16-16.1 16-16.1C144.9 63.4 146 62 146 58.5c0-3.1-.8-4.5-5.9-9.6-5.1-5.1-6.5-5.9-9.7-5.9-3.4 0-4.8 1.1-19.8 15.9l-16.1 16-16.1-16C63.3 44 62 43 58.5 43c-3.3 0-4.6.8-9.7 5.8zM537.3 87.6c-.3.9.5 2.6 2.1 4.3l2.6 2.7-2.5 2.4c-2.9 2.7-3.2 4.8-.9 5.7.9.3 2.6-.5 4.3-2.1l2.7-2.6 2.4 2.5c2.7 2.9 4.8 3.2 5.7.9.3-.9-.5-2.6-2.1-4.3l-2.6-2.7 2.5-2.4c2.9-2.7 3.2-4.8.9-5.7-.9-.3-2.6.5-4.3 2.1l-2.7 2.6-2.4-2.5c-2.7-2.9-4.8-3.2-5.7-.9zM414.9 147.9c-6.2 6.2-2 17.1 6.6 17.1 2.7 0 4.4-.8 6.6-2.9 6.2-6.2 2-17.1-6.6-17.1-2.7 0-4.4.8-6.6 2.9zm13.9 3.5c2.8 5.6-1.1 11.8-7.3 11.8-8.9 0-11.5-12.2-3.3-15.7 4.2-1.7 8.7-.1 10.6 3.9zM537.7 146.7c-1.3 1.2-.7 3.7 1.5 6l2.1 2.3-2.1 2.3c-4.6 4.9-1.1 8.9 3.6 4.3l2.8-2.6 2.6 2.7c4.7 4.6 8.2.5 3.6-4.4l-2.1-2.3 2.1-2.3c4.6-4.9 1.1-8.9-3.7-4.3l-2.7 2.6-2.4-2.5c-2.3-2.5-4.1-3.1-5.3-1.8zM471 214.6c-1.4.3-5.4 1.4-9 2.6-25.1 8-42.6 26.3-49.6 51.8-2.7 9.7-2.5 26.2.4 36.3 9.2 32.3 37.5 53.8 70.7 53.8 33.4 0 62.6-22.6 71.2-55.1 2.4-8.8 2.3-26.3 0-35-5.5-20.3-19.6-37.9-37.7-47-10.8-5.5-17.9-7.2-31-7.5-6.9-.2-13.6-.1-15 .1zm24.4 13.9c19.1 4 36.1 18 43.2 35.5 11.4 28.1-1.3 62.1-28.1 75-7.9 3.8-20.1 7-27 7-6.9 0-19-3.2-27.1-7-15-7.2-27.5-23.2-31-40-3.1-14.6-.1-32 7.4-43.6 13.9-21.3 38.8-32 62.6-26.9zM77.6 216.6c-8.2 2-21.1 8.3-28 13.8-27.2 21.3-35.4 59.3-19.7 91.1 8.7 17.5 23.3 29.7 43.6 36.6 6.2 2.1 8.7 2.4 21.5 2.3 13.1 0 15.2-.3 21.9-2.7 11.9-4.3 19.9-9.4 28.7-18.1 8.7-8.8 13.8-16.7 18.1-28.7 2.5-6.8 2.7-8.6 2.7-22.9 0-14.3-.2-16.1-2.7-22.9-4.5-12.3-9.3-19.9-18.6-29.1-7.1-7.1-10.3-9.4-18.1-13.3-5.2-2.5-12.4-5.3-16-6.2-8.1-1.8-25.5-1.8-33.4.1zm32.5 14c16.6 4.9 29.9 15.9 36.8 30.4 9.1 19 9.2 35 .1 53.9-4.7 9.7-13.9 19.6-23.1 24.8-18.1 10.4-40.7 10.4-58.9 0-9-5.1-18.5-15.4-23.1-25-8.9-18.7-8.9-34.8.1-53.5 6.9-14.4 19.5-25 36-30.3 7.3-2.4 24.5-2.5 32.1-.3zM467.4 410.4c-25.5 5.8-47 25.5-55.1 50.3-3.7 11.3-4.3 28.7-1.4 40.4 3.5 14 9.1 24 19.6 34.5 10 10.1 17.9 15.1 30.3 19.2 6.9 2.3 9.3 2.5 22.7 2.5 13.4 0 15.8-.2 22.8-2.5 22.2-7.4 41-26.2 48.5-48.5 2.3-7 2.6-9.3 2.6-22.8s-.3-15.8-2.6-22.8c-7.5-22.3-26.4-41.2-48.5-48.4-9.7-3.2-29.2-4.1-38.9-1.9zm28.2 13.7c17.3 3.1 34.7 16.8 42.3 33 8.2 17.6 8.2 35.2 0 52.8-7.2 15.5-23.4 28.6-40.1 32.6-20.8 4.9-41.7-1.1-56.9-16.4-8.7-8.6-13-16.2-16-27.9-7-27.6 6.7-57.2 32.3-69.2 4.6-2.1 10.6-4.3 13.3-4.8 7-1.4 18.1-1.4 25.1-.1zM25.6 414.5c-.3.8.5 2.7 1.8 4.2l2.4 2.8-2.4 2.8c-4.1 4.8-.4 7.9 4.3 3.5l2.3-2.1 2.3 2.1c4.7 4.4 8.4 1.3 4.3-3.5l-2.4-2.8 2.4-2.8c4.1-4.8.4-7.9-4.3-3.5l-2.3 2.1-2.3-2.1c-2.7-2.5-5.2-2.8-6.1-.7zM86.6 414.5c-.3.8.5 2.7 1.8 4.2l2.4 2.8-2.4 2.8c-4.1 4.8-.4 7.9 4.3 3.5l2.3-2.1 2.3 2.1c4.7 4.4 8.4 1.3 4.3-3.5l-2.4-2.8 2.4-2.8c4.1-4.8.4-7.9-4.3-3.5l-2.3 2.1-2.3-2.1c-2.7-2.5-5.2-2.8-6.1-.7zM146.6 414.5c-.3.8.5 2.7 1.8 4.2l2.4 2.8-2.4 2.8c-4.1 4.8-.4 7.9 4.3 3.5l2.3-2.1 2.3 2.1c4.7 4.4 8.4 1.3 4.3-3.5l-2.4-2.8 2.4-2.8c4.1-4.8.4-7.9-4.3-3.5l-2.3 2.1-2.3-2.1c-2.7-2.5-5.2-2.8-6.1-.7z"/><path d="M48.6 437.1c-7.1 6.5-8.5 11.2-5 16.4.8 1.1 8 8.6 16.1 16.7l14.8 14.7-16.3 16.4C43.1 516.6 42 518 42 521.4c0 3.2.9 4.7 5.6 9.6 6 6.3 8.8 7.6 13.1 5.9 1.5-.6 9.8-8 18.3-16.5L94.6 505l13.4 13.6c21.6 21.8 23.3 22.6 32 14.7 6.4-5.7 8.5-10 6.9-14-.6-1.5-8.1-9.9-16.7-18.5L114.6 485l16.1-16.2c10.4-10.6 16.2-17.2 16.5-19 .7-4-1.4-7.9-7.2-13.1-8.7-7.9-10.4-7.1-32 14.7L94.5 465l-15-14.9c-8.2-8.1-16.1-15.6-17.5-16.5-4.3-2.8-7.4-2-13.4 3.5zM247.5 433.4c-4.7 2.1-12.5 11-12.5 14.3 0 4.2 2.6 7.4 18 22.5 7.7 7.5 14 14.2 14 14.7 0 .6-7.2 8.2-16 16.9-14.9 14.9-16 16.2-16 19.7 0 3.1.9 4.6 5.6 9.5 6 6.3 8.7 7.6 13.1 6 1.5-.6 9.9-8.2 18.6-16.8l15.7-15.7 15.8 15.7c8.6 8.6 17 16.2 18.5 16.7 4 1.6 8.3-.6 14-6.9 5.3-5.8 5.8-8.7 2.7-13.5-1-1.6-8.2-9.1-16-16.7-7.7-7.5-14-14.2-14-14.8 0-.6 6.3-7.3 14-14.8 7.8-7.6 15-15.1 16-16.7 3.1-4.8 2.6-7.7-2.7-13.5-5.7-6.3-10-8.5-14-6.9-1.5.5-9.9 8.1-18.5 16.7L288 465.4l-16.3-16.2c-9-8.9-16.8-16.2-17.4-16.2-.6 0-1.7-.2-2.5-.5-.7-.2-2.6.2-4.3.9z"/><path d="M26 475.5c-1.1 1.3-.8 2.1 1.5 4.5l2.9 3-2.9 3c-2.7 2.8-2.8 3.1-1.2 4.7 1.6 1.6 1.9 1.5 4.7-1.2l3-2.9 3 2.9c2.8 2.7 3.1 2.8 4.7 1.2 1.6-1.6 1.5-1.9-1.2-4.7l-2.9-3 2.9-3c2.7-2.8 2.8-3.1 1.2-4.7-1.6-1.6-1.9-1.5-4.7 1.2l-3 2.9-2.8-2.7c-3.3-3.1-3.5-3.2-5.2-1.2zM148.5 476.5c-1.9 1.8-2.5 3.5-2.5 6.5 0 5.6 3.4 9 9 9s9-3.4 9-9-3.4-9-9-9c-3 0-4.7.6-6.5 2.5zm11.9 1.1c1.5 1.6 2.6 3.8 2.6 5.4 0 3.6-4.4 8-8 8-3.6 0-8-4.4-8-8 0-3.6 4.4-8 8-8 1.6 0 3.8 1.1 5.4 2.6zM27.5 538.5c-1.9 1.8-2.5 3.5-2.5 6.5 0 5.6 3.4 9 9 9s9-3.4 9-9c0-3-.6-4.7-2.5-6.5-1.8-1.9-3.5-2.5-6.5-2.5s-4.7.6-6.5 2.5zm11.9 1.1c3.4 3.5 3.4 7.3 0 10.8-1.6 1.5-3.8 2.6-5.4 2.6-3.6 0-8-4.4-8-8 0-3.6 4.4-8 8-8 1.6 0 3.8 1.1 5.4 2.6zM88.5 538.5c-1.9 1.8-2.5 3.5-2.5 6.5 0 5.6 3.4 9 9 9s9-3.4 9-9-3.4-9-9-9c-3 0-4.7.6-6.5 2.5zm11.9 1.1c1.5 1.6 2.6 3.8 2.6 5.4 0 1.6-1.1 3.8-2.6 5.4-1.6 1.5-3.8 2.6-5.4 2.6-3.6 0-8-4.4-8-8 0-3.6 4.4-8 8-8 1.6 0 3.8 1.1 5.4 2.6zM147 537.5c-1.1 1.3-.8 2.1 1.5 4.5l2.9 3-2.9 3c-2.7 2.8-2.8 3.1-1.2 4.7 1.6 1.6 1.9 1.5 4.7-1.2l3-2.9 3 2.9c2.8 2.7 3.1 2.8 4.7 1.2 1.6-1.6 1.5-1.9-1.2-4.7l-2.9-3 2.9-3c2.7-2.8 2.8-3.1 1.2-4.7-1.6-1.6-1.9-1.5-4.7 1.2l-3 2.9-2.8-2.7c-3.3-3.1-3.5-3.2-5.2-1.2z"/></svg>